<svg xmlns="http://www.w3.org/2000/svg" xmlns:xlink="http://www.w3.org/1999/xlink" width="88" zoomAndPan="magnify" viewBox="0 0 66 56.999997" height="76" preserveAspectRatio="xMidYMid meet" version="1.0"><defs><clipPath id="76dafdb0dd"><path d="M 13 24 L 64.5 24 L 64.5 33 L 13 33 Z M 13 24 " clip-rule="nonzero"/></clipPath><clipPath id="89c6c3cf54"><path d="M 22 4 L 64.5 4 L 64.5 13 L 22 13 Z M 22 4 " clip-rule="nonzero"/></clipPath><clipPath id="5d441fc391"><path d="M 44 14 L 64.5 14 L 64.5 23 L 44 23 Z M 44 14 " clip-rule="nonzero"/></clipPath><clipPath id="917992c384"><path d="M 24 33 L 64.5 33 L 64.5 42 L 24 42 Z M 24 33 " clip-rule="nonzero"/></clipPath><clipPath id="3b324aa7e4"><path d="M 28 43 L 64.5 43 L 64.5 52 L 28 52 Z M 28 43 " clip-rule="nonzero"/></clipPath></defs><g clip-path="url(#76dafdb0dd)"><path fill="#8c52ff" d="M 86.765625 24.152344 L 45.25 24.152344 L 43.476562 27.21875 L 39.371094 27.21875 L 37.597656 24.152344 C 36.070312 24.152344 16.917969 24.152344 15.386719 24.152344 L 13.09375 28.125 L 15.386719 32.09375 C 16.917969 32.09375 36.070312 32.09375 37.597656 32.09375 L 39.371094 29.03125 L 43.476562 29.03125 L 45.25 32.09375 L 86.765625 32.09375 C 87.222656 29.472656 87.222656 26.785156 86.765625 24.152344 Z M 86.765625 24.152344 " fill-opacity="1" fill-rule="nonzero"/></g><g clip-path="url(#89c6c3cf54)"><path fill="#8c52ff" d="M 29.769531 12.570312 L 31.539062 9.503906 L 35.644531 9.503906 L 37.417969 12.570312 L 81.1875 12.570312 C 72.960938 3.296875 63.734375 4.621094 52.609375 4.621094 L 37.417969 4.621094 L 35.644531 7.683594 L 31.539062 7.683594 L 29.769531 4.621094 L 25.183594 4.621094 L 22.890625 8.589844 L 25.183594 12.5625 L 29.769531 12.5625 Z M 29.769531 12.570312 " fill-opacity="1" fill-rule="nonzero"/></g><g clip-path="url(#5d441fc391)"><path fill="#8c52ff" d="M 57.1875 17.457031 L 53.082031 17.457031 L 51.308594 14.390625 L 46.722656 14.390625 L 44.429688 18.363281 L 46.722656 22.332031 L 51.308594 22.332031 L 53.082031 19.269531 L 57.1875 19.269531 L 58.960938 22.332031 L 86.378906 22.332031 C 85.636719 19.433594 84.355469 16.746094 82.644531 14.382812 L 58.960938 14.382812 Z M 57.1875 17.457031 " fill-opacity="1" fill-rule="nonzero"/></g><path fill="#8c52ff" d="M 2.292969 24.152344 L 0 28.125 L 2.292969 32.101562 L 6.886719 32.101562 L 9.179688 28.125 L 6.886719 24.152344 Z M 2.292969 24.152344 " fill-opacity="1" fill-rule="nonzero"/><path fill="#8c52ff" d="M 31.335938 18.363281 L 33.628906 22.332031 L 38.222656 22.332031 L 40.515625 18.363281 L 38.222656 14.390625 L 33.628906 14.390625 Z M 31.335938 18.363281 " fill-opacity="1" fill-rule="nonzero"/><path fill="#8c52ff" d="M 17.964844 43.675781 L 15.664062 47.65625 L 17.964844 51.628906 L 22.550781 51.628906 L 24.84375 47.65625 L 22.550781 43.675781 Z M 17.964844 43.675781 " fill-opacity="1" fill-rule="nonzero"/><g clip-path="url(#917992c384)"><path fill="#8c52ff" d="M 37.597656 36.980469 L 33.496094 36.980469 L 31.722656 33.914062 L 27.136719 33.914062 L 24.84375 37.886719 L 27.136719 41.855469 L 31.722656 41.855469 L 33.496094 38.792969 L 37.597656 38.792969 L 39.371094 41.855469 L 82.636719 41.855469 C 84.347656 39.492188 85.628906 36.804688 86.371094 33.90625 C 72.007812 33.90625 53.726562 33.90625 39.363281 33.90625 Z M 37.597656 36.980469 " fill-opacity="1" fill-rule="nonzero"/></g><g clip-path="url(#3b324aa7e4)"><path fill="#8c52ff" d="M 49.355469 46.75 L 45.25 46.75 L 43.476562 43.683594 C 39.339844 43.683594 35.195312 43.683594 31.050781 43.683594 L 28.757812 47.65625 L 31.050781 51.628906 C 35.195312 51.628906 39.332031 51.628906 43.476562 51.628906 L 45.25 48.5625 L 49.355469 48.5625 L 51.128906 51.628906 C 62.875 51.628906 72.75 53.195312 81.1875 43.675781 L 51.128906 43.675781 Z M 49.355469 46.75 " fill-opacity="1" fill-rule="nonzero"/></g><path stroke-linecap="round" transform="matrix(0, 0.75, -0.75, 0, 65.872745, 0.000399543)" fill="none" stroke-linejoin="miter" d="M 1.499467 1.502202 L 73.827599 1.502202 " stroke="#8c52ff" stroke-width="3" stroke-opacity="1" stroke-miterlimit="4"/></svg>